<svg width="101" height="91" viewBox="0 0 101 91" fill="none" xmlns="http://www.w3.org/2000/svg">
<path fill-rule="evenodd" clip-rule="evenodd" d="M13.4297 15L5.85355 7.42387C5.65829 7.2286 5.65829 6.91202 5.85355 6.71676L10.4497 2.12057C10.645 1.9253 10.9616 1.9253 11.1569 2.12057L94.533 85.4967C94.7282 85.6919 94.7282 86.0085 94.533 86.2038L89.9368 90.8C89.7415 90.9952 89.4249 90.9952 89.2297 90.8L78.4297 80H10.5C4.97715 80 0.5 75.5229 0.5 70V25C0.5 19.4772 4.97715 15 10.5 15H13.4297ZM60.658 62.2284C57.6061 64.0277 54.1032 65 50.5 65C39.4543 65 30.5 56.0457 30.5 45C30.5 41.2908 31.5098 37.8174 33.2694 34.8397L60.658 62.2284ZM70.5 45C70.5 46.8467 70.2446 48.6671 69.7533 50.4139L96.9671 77.6277C99.1284 75.7934 100.5 73.0569 100.5 70V25C100.5 19.4772 96.0229 15 90.5 15H84.65C81.9848 15.0021 79.429 13.9402 77.55 12.05L69.9 4.4C67.0897 1.58615 63.2769 0.00350105 59.3 0H41.7C37.7231 0.00350105 33.9103 1.58615 31.1 4.4L27.4197 8.0803L45.082 25.7426C46.8051 25.2588 48.6223 25 50.5 25C61.5457 25 70.5 33.9543 70.5 45Z" fill="#526C69"/>
</svg>
